<svg width="110" height="22" fill="none" xmlns="http://www.w3.org/2000/svg"><g clip-path="url(#clip0_1_38)" fill="#fff"><path d="M7.92 18.235l-.614 1.855h1.24l-.613-1.855H7.92zM8.808 7.75c-.21.933-.608 1.645-1.182 2.135-.588.47-1.3.712-2.148.712a3.84 3.84 0 01-1.94-.523c-.587-.346-1.024-.881-1.299-1.593-.3-.712-.437-1.56-.437-2.514 0-.744.124-1.475.366-2.167a3.346 3.346 0 011.234-1.665c.587-.398 1.332-.607 2.2-.607.764 0 1.384.176 1.887.555.502.365.881.953 1.142 1.769l.033.085 1.737-.398-.033-.105c-.327-1.077-.901-1.926-1.717-2.533C7.835.313 6.829.02 5.635.02a6.185 6.185 0 00-2.9.692A4.983 4.983 0 00.713 2.794C.242 3.695 0 4.766 0 5.967c0 1.11.209 2.168.627 3.121.418.973 1.038 1.737 1.854 2.24.797.522 1.854.783 3.14.783 1.234 0 2.292-.346 3.154-1.005.868-.66 1.456-1.646 1.789-2.912l.033-.105-1.75-.43-.04.09zM24.692.783C23.805.261 22.8 0 21.71 0c-1.685 0-3.069.555-4.127 1.645-1.057 1.09-1.593 2.638-1.593 4.558 0 1.025.229 1.99.692 2.911.451.921 1.13 1.646 2.011 2.188.882.535 1.894.796 2.997.796a5.878 5.878 0 002.893-.731c.9-.47 1.593-1.195 2.095-2.135.483-.92.732-1.991.732-3.173 0-1.162-.242-2.2-.692-3.121A5.192 5.192 0 0024.692.783zm-.189 8.632c-.731.777-1.684 1.182-2.807 1.182-1.11 0-2.044-.399-2.795-1.163-.73-.783-1.11-1.854-1.11-3.205 0-1.685.399-2.912 1.163-3.624a3.934 3.934 0 012.755-1.077c.764 0 1.436.19 2.043.555a3.612 3.612 0 011.372 1.58c.313.679.47 1.488.47 2.409 0 1.436-.366 2.566-1.09 3.343zM42.569.503l-2.795 7.959c-.228.64-.398 1.142-.522 1.54l-.47-1.384-2.788-8.22h-.19v4.25l2.586 7.457h1.541l2.638-7.443V.502zM35.178.398h-1.697v11.707h1.697V.398zm9.696 0h-1.685v11.707h1.685V.398zm7.821 0h-1.75v11.707h1.75V.398zm7.038 1.822c-.26-.483-.574-.882-.985-1.143-.399-.28-.901-.47-1.476-.555-.418-.085-1.025-.124-1.802-.124h-2.148v1.56h2.272c.692 0 1.162.033 1.423.105.38.105.692.314.921.64.242.326.346.712.346 1.182 0 .627-.19 1.11-.587 1.456-.399.346-1.09.522-2.064.522H53.33v1.58h2.291c1.665 0 2.86-.366 3.5-1.058.66-.692.986-1.54.986-2.546a3.668 3.668 0 00-.373-1.62zM70.741.398l-4.576 11.707h1.854l.522-1.371h-.02l1.32-3.552.28-.731.973-2.586h.02c.208-.574.378-1.162.522-1.737.176.555.418 1.234.712 1.992l1.181 3.049h-2.997l-.535 1.436h4.094l1.37 3.487h1.992L72.563.385H70.74v.013zm14.227 0h-1.632v11.707h1.632V.398zm6.098 8.795l-.033-.052v2.964h1.73V.398h-1.697v8.795zm-5.478-5.047l4.819 7.07V8.22l-4.819-7.058v2.984zM107.917.398l-2.304 3.435c-.451.679-.849 1.318-1.195 1.873v-.02l-.973 1.476v4.943h1.769V7.162L109.98.398h-2.063zm-3.865 4.682l-.725-1.163-2.343-3.519h-2.148l4.23 6.21.986-1.528zM0 17.942h1.162v3.669h.647v-3.67H2.97v-.574H0v.575z"/><path d="M7.658 17.367l-1.54 4.244h.679l.326-.947h1.613l.326.947h.68L8.2 17.367h-.542zm-.352 2.723l.614-1.855h.013l.613 1.855h-1.24zm7.73-.21h.862v.223c-.006.267-.085.483-.248.646a.827.827 0 01-.62.255.759.759 0 01-.392-.098.676.676 0 01-.268-.216.68.68 0 01-.163-.359c-.033-.15-.046-.43-.046-.849 0-.418.013-.698.046-.855a.737.737 0 01.163-.352.736.736 0 01.268-.216.91.91 0 01.392-.091.881.881 0 01.522.176.936.936 0 01.287.437h.68a1.582 1.582 0 00-.49-.894c-.262-.242-.595-.36-1-.366-.332.007-.613.085-.835.242-.229.15-.392.326-.496.522a1.17 1.17 0 00-.144.405c-.026.17-.046.496-.046.992 0 .483.014.817.046.986.013.092.033.17.059.229.026.059.052.117.085.183.104.195.268.365.496.515.222.157.503.235.836.242a1.52 1.52 0 001.077-.438c.28-.287.43-.64.437-1.07v-.862h-1.508v.614zm6.477-2.513h-.64v4.244h2.71v-.607h-2.07v-3.637zm6.894 0h-.64v4.244h.64v-4.244zm7.006 3.016h-.006l-1.926-3.016h-.601v4.244h.64v-3.017h.013l1.92 3.017h.606v-4.244h-.646v3.016zm5.119 1.227h2.71v-.606h-2.064v-1.247h1.763v-.568h-1.763v-1.215h2.063v-.607h-2.71v4.244zm13.273-1.73h.862v.223c-.007.267-.085.483-.248.646a.827.827 0 01-.62.255.759.759 0 01-.392-.098.676.676 0 01-.268-.216.68.68 0 01-.163-.359c-.033-.15-.046-.43-.046-.849 0-.418.013-.698.046-.855a.737.737 0 01.163-.352.736.736 0 01.268-.216.866.866 0 01.914.085.935.935 0 01.287.437h.68a1.582 1.582 0 00-.49-.894c-.255-.242-.595-.36-1-.366-.332.007-.613.085-.835.242-.229.15-.392.326-.496.522a1.166 1.166 0 00-.144.405c-.026.17-.046.496-.046.992 0 .483.014.817.046.986.013.092.033.17.059.229.026.059.052.117.085.183.104.195.267.365.496.515.222.157.503.235.836.242a1.52 1.52 0 001.077-.438c.28-.287.43-.64.437-1.07v-.862h-1.508v.614zm8.534-1.788a1.401 1.401 0 00-.484-.522c-.228-.157-.509-.236-.842-.242-.333.006-.613.085-.835.242-.229.15-.392.326-.497.522a1.17 1.17 0 00-.143.405c-.026.17-.046.496-.046.992 0 .483.013.816.046.986.013.091.032.17.058.228.027.06.053.118.085.183.105.196.268.366.497.516.222.157.502.235.835.241.34-.006.62-.09.842-.241.222-.15.386-.32.484-.516a.985.985 0 00.15-.411c.026-.17.039-.496.039-.986s-.013-.823-.04-.992a.989.989 0 00-.15-.405zm-.503 2.246a.8.8 0 01-.17.359.829.829 0 01-.255.215.783.783 0 01-.398.098.759.759 0 01-.392-.098.676.676 0 01-.267-.215.68.68 0 01-.163-.36c-.033-.15-.046-.43-.046-.848s.013-.699.045-.855a.737.737 0 01.164-.353.737.737 0 01.267-.215.912.912 0 01.392-.092c.15.007.288.033.398.092.105.058.19.13.255.215a.688.688 0 01.17.353c.026.15.046.437.046.855s-.014.699-.046.849zm5.014 1.272h2.71v-.606h-2.064v-1.247h1.763v-.568h-1.763v-1.215h2.064v-.607h-2.71v4.244zm8.475-2.421c-.203-.026-.36-.046-.477-.066-.209-.039-.359-.11-.457-.209a.456.456 0 01-.144-.333c.007-.202.072-.359.216-.457.13-.098.3-.15.496-.15.385.007.731.118 1.051.327l.36-.53a2.354 2.354 0 00-1.378-.437c-.438.007-.777.118-1.019.346-.248.229-.372.53-.372.895 0 .307.098.568.294.783.19.21.47.346.836.405.202.026.391.052.561.078.372.066.555.255.555.569-.006.385-.287.58-.836.587a1.876 1.876 0 01-1.208-.424l-.424.483c.45.385.992.58 1.62.58.972-.012 1.468-.423 1.488-1.233 0-.3-.092-.561-.28-.79-.19-.222-.484-.366-.882-.424zm12.745 0h-1.68v-1.822h-.646v4.244h.646v-1.854h1.678v1.854h.647v-4.244h-.647v1.822zm5.118 2.421h2.71v-.606h-2.07v-1.247h1.763v-.568h-1.763v-1.215h2.07v-.607h-2.71v4.244zm9.833-3.061c-.014-.392-.151-.692-.425-.908-.222-.19-.509-.28-.862-.28h-1.658v4.243h.646V19.79h.823l.875 1.815h.764l-.986-1.88c.542-.202.816-.594.823-1.175zm-2.299.679v-1.286h1.006c.202 0 .365.045.47.13.137.098.209.261.215.483a.65.65 0 01-.176.464c-.117.137-.3.209-.542.209h-.973zm6.568 2.382H110v-.606h-2.07v-1.247h1.763v-.568h-1.763v-1.215H110v-.607h-2.71v4.244z"/></g><defs><clipPath id="clip0_1_38"><path fill="#fff" d="M0 0h110v21.643H0z"/></clipPath></defs></svg>