<svg width="110" height="22" viewBox="0 0 110 22" fill="none" xmlns="http://www.w3.org/2000/svg">
<g clip-path="url(#clip0_1_38)">
<path d="M7.91963 18.2354L7.30591 20.0896H8.54641L7.93269 18.2354H7.91963Z" fill="white"/>
<path d="M8.80757 7.74983C8.59865 8.68347 8.20038 9.39513 7.62583 9.8848C7.03822 10.3549 6.32657 10.5965 5.4778 10.5965C4.78573 10.5965 4.14589 10.4202 3.5387 10.0741C2.95109 9.7281 2.51365 9.19273 2.23944 8.48107C1.9391 7.76941 1.80199 6.92065 1.80199 5.96742C1.80199 5.22312 1.92604 4.49187 2.16762 3.7998C2.40919 3.1012 2.82704 2.54624 3.40159 2.13492C3.9892 1.73665 4.7335 1.52772 5.60185 1.52772C6.36574 1.52772 6.98599 1.704 7.48872 2.08268C7.99145 2.44831 8.37013 3.03591 8.63129 3.85203L8.66394 3.93691L10.4006 3.53864L10.368 3.43418C10.0415 2.3569 9.467 1.50814 8.65088 0.900942C7.83476 0.313335 6.8293 0.0195312 5.6345 0.0195312C4.59639 0.0195312 3.62358 0.248045 2.73564 0.711602C1.87381 1.19475 1.18174 1.88682 0.711657 2.79434C0.241572 3.69534 0 4.76609 0 5.96742C0 7.07734 0.208927 8.13504 0.626781 9.08827C1.04463 10.0611 1.66489 10.825 2.48101 11.3277C3.27754 11.85 4.33523 12.1112 5.62144 12.1112C6.85541 12.1112 7.91311 11.7651 8.77493 11.1057C9.64328 10.4463 10.2309 9.46042 10.5639 8.1938L10.5965 8.08933L8.84675 7.65842L8.80757 7.74983Z" fill="white"/>
<path d="M24.6925 0.783476C23.8046 0.261159 22.7991 0 21.7088 0C20.0243 0 18.6402 0.554962 17.5825 1.6453C16.5248 2.73564 15.9894 4.283 15.9894 6.20252C15.9894 7.22756 16.218 8.19385 16.6815 9.11443C17.132 10.035 17.811 10.7597 18.6924 11.3016C19.5738 11.837 20.5858 12.0982 21.6892 12.0982C22.7273 12.0982 23.7001 11.8566 24.5816 11.3669C25.4826 10.8968 26.1746 10.1721 26.6774 9.23196C27.1605 8.31137 27.4086 7.24062 27.4086 6.05888C27.4086 4.89672 27.167 3.85862 26.7165 2.93803C26.253 2.03051 25.574 1.29926 24.6925 0.783476ZM24.5032 9.41477C23.772 10.1917 22.8187 10.5965 21.6958 10.5965C20.5858 10.5965 19.6522 10.1982 18.9014 9.43435C18.1701 8.65088 17.7914 7.58013 17.7914 6.22863C17.7914 4.54416 18.1897 3.31671 18.9536 2.60506C19.7175 1.8934 20.6511 1.52778 21.7088 1.52778C22.4727 1.52778 23.1452 1.71712 23.7524 2.08274C24.34 2.44836 24.8101 2.98374 25.1235 3.66275C25.4368 4.34176 25.5935 5.15135 25.5935 6.07194C25.5935 7.50831 25.2279 8.63782 24.5032 9.41477Z" fill="white"/>
<path d="M42.5688 0.502779L39.7744 8.46159C39.5459 9.10143 39.3762 9.60416 39.2521 10.0024L38.782 8.61828L35.9942 0.398315H35.8048V4.64867L38.3903 12.1048H39.9311L42.5688 4.66173V0.502779Z" fill="white"/>
<path d="M35.1781 0.398315H33.4805V12.1048H35.1781V0.398315Z" fill="white"/>
<path d="M44.8736 0.398315H43.1891V12.1048H44.8736V0.398315Z" fill="white"/>
<path d="M52.6953 0.398315H50.9455V12.1048H52.6953V0.398315Z" fill="white"/>
<path d="M59.7335 2.2199C59.4723 1.73675 59.1589 1.33849 58.7476 1.07733C58.3494 0.796582 57.8466 0.607242 57.2721 0.522366C56.8542 0.437489 56.247 0.398315 55.4701 0.398315H53.3221V1.95874H55.5941C56.2862 1.95874 56.7563 1.99138 57.0174 2.0632C57.3961 2.16766 57.7095 2.37659 57.938 2.70304C58.1796 3.02949 58.2841 3.4147 58.2841 3.88478C58.2841 4.51156 58.0947 4.99471 57.6965 5.34074C57.2982 5.68678 56.6061 5.86306 55.6333 5.86306H53.3286V7.44307H55.6202C57.2851 7.44307 58.4799 7.07745 59.1198 6.38538C59.7792 5.69331 60.1056 4.84454 60.1056 3.83908C60.0991 3.24494 59.9751 2.70304 59.7335 2.2199Z" fill="white"/>
<path d="M70.7413 0.398312L66.1645 12.1047H68.0187L68.5411 10.7337H68.5215L69.8403 7.18191L70.1211 6.45066L71.0939 3.86519H71.1135C71.3224 3.29064 71.4922 2.70304 71.6358 2.12849C71.8121 2.68345 72.0536 3.36246 72.3475 4.11982L73.5292 7.16885H70.5324L69.997 8.60522H74.0907L75.4618 12.0917H77.4531L72.5629 0.385254H70.7413V0.398312Z" fill="white"/>
<path d="M84.9679 0.398315H83.3357V12.1048H84.9679V0.398315Z" fill="white"/>
<path d="M91.066 9.19283L91.0333 9.1406V12.1048H92.7635V0.398315H91.066V9.19283Z" fill="white"/>
<path d="M85.5882 4.14585L90.4066 11.2167V8.21992L85.5882 1.16211V4.14585Z" fill="white"/>
<path d="M107.917 0.398315L105.613 3.83255C105.162 4.51156 104.764 5.1514 104.418 5.70636V5.68678L103.445 7.16232V12.1048H105.214V7.16232L109.98 0.398315H107.917V0.398315Z" fill="white"/>
<path d="M104.052 5.07958L103.327 3.91743L100.984 0.398315H98.8355L103.066 6.60736L104.052 5.07958Z" fill="white"/>
<path d="M0 17.9416H1.16216V21.6109H1.80852V17.9416H2.97068V17.3671H0V17.9416Z" fill="white"/>
<path d="M7.65848 17.3671L6.11765 21.6109H6.79666L7.12311 20.6642H8.73576L9.06221 21.6109H9.74122L8.20039 17.3671H7.65848ZM7.30592 20.0896L7.91964 18.2354H7.9327L8.54642 20.0896H7.30592Z" fill="white"/>
<path d="M15.0362 19.8806H15.898V20.1026C15.8915 20.3703 15.8131 20.5858 15.6499 20.749C15.4867 20.9188 15.2778 21.0036 15.0297 21.0036C14.8795 21.0036 14.7489 20.971 14.6379 20.9057C14.5269 20.8535 14.4355 20.7816 14.3702 20.6902C14.2854 20.5988 14.2331 20.4813 14.207 20.3311C14.1744 20.181 14.1613 19.9002 14.1613 19.4824C14.1613 19.0645 14.1744 18.7838 14.207 18.6271C14.2331 18.4834 14.2919 18.3659 14.3702 18.2745C14.4355 18.1896 14.5269 18.1113 14.6379 18.0591C14.7489 18.0003 14.8795 17.9742 15.0297 17.9677C15.2321 17.9742 15.4084 18.0329 15.552 18.1439C15.6891 18.2615 15.787 18.4116 15.8393 18.5814H16.5183C16.453 18.2288 16.2898 17.9285 16.0286 17.6869C15.7674 17.4453 15.4345 17.3278 15.0297 17.3213C14.6967 17.3278 14.4159 17.4062 14.194 17.5629C13.9655 17.713 13.8022 17.8893 13.6978 18.0852C13.6325 18.1896 13.5868 18.3202 13.5541 18.49C13.528 18.6597 13.5084 18.9862 13.5084 19.4824C13.5084 19.9655 13.5215 20.2985 13.5541 20.4683C13.5672 20.5597 13.5868 20.638 13.6129 20.6968C13.639 20.7555 13.6651 20.8143 13.6978 20.8796C13.8022 21.0754 13.9655 21.2452 14.194 21.3954C14.4159 21.5521 14.6967 21.6304 15.0297 21.6369C15.4606 21.6304 15.8197 21.4802 16.107 21.1995C16.3877 20.9122 16.5379 20.5597 16.5444 20.1287V19.2669H15.0362V19.8806V19.8806Z" fill="white"/>
<path d="M21.5129 17.3671H20.8731V21.6109H23.5826V21.0037H21.5129V17.3671Z" fill="white"/>
<path d="M28.4075 17.3671H27.7677V21.6109H28.4075V17.3671Z" fill="white"/>
<path d="M35.4131 20.3834H35.4066L33.4805 17.3671H32.8799V21.6109H33.5197V18.5945H33.5328L35.4523 21.6109H36.0595V17.3671H35.4131V20.3834Z" fill="white"/>
<path d="M40.5318 21.6109H43.2413V21.0037H41.1782V19.7567H42.941V19.1886H41.1782V17.9743H43.2413V17.3671H40.5318V21.6109Z" fill="white"/>
<path d="M53.8052 19.8806H54.667V20.1026C54.6605 20.3703 54.5821 20.5858 54.4189 20.749C54.2557 20.9188 54.0468 21.0036 53.7987 21.0036C53.6485 21.0036 53.5179 20.971 53.4069 20.9057C53.2959 20.8535 53.2045 20.7816 53.1392 20.6902C53.0544 20.5988 53.0021 20.4813 52.976 20.3311C52.9434 20.181 52.9303 19.9002 52.9303 19.4824C52.9303 19.0645 52.9434 18.7838 52.976 18.6271C53.0021 18.4834 53.0609 18.3659 53.1392 18.2745C53.2045 18.1896 53.2959 18.1113 53.4069 18.0591C53.5179 18.0003 53.6485 17.9742 53.7987 17.9677C54.0076 17.9742 54.1773 18.0329 54.321 18.1439C54.4581 18.2615 54.556 18.4116 54.6082 18.5814H55.2873C55.222 18.2288 55.0587 17.9285 54.7976 17.6869C54.543 17.4453 54.2035 17.3278 53.7987 17.3213C53.4657 17.3278 53.1849 17.4062 52.9629 17.5629C52.7344 17.713 52.5712 17.8893 52.4667 18.0852C52.4015 18.1896 52.3558 18.3202 52.3231 18.49C52.297 18.6597 52.2774 18.9862 52.2774 19.4824C52.2774 19.9655 52.2905 20.2985 52.3231 20.4683C52.3362 20.5597 52.3558 20.638 52.3819 20.6968C52.408 20.7555 52.4341 20.8143 52.4667 20.8796C52.5712 21.0754 52.7344 21.2452 52.9629 21.3954C53.1849 21.5521 53.4657 21.6304 53.7987 21.6369C54.2296 21.6304 54.5887 21.4802 54.8759 21.1995C55.1567 20.9122 55.3068 20.5597 55.3134 20.1287V19.2669H53.8052V19.8806Z" fill="white"/>
<path d="M62.3386 18.0918C62.2406 17.8959 62.0774 17.7196 61.8554 17.5695C61.6269 17.4128 61.3462 17.3344 61.0132 17.3279C60.6802 17.3344 60.3995 17.4128 60.1775 17.5695C59.949 17.7196 59.7857 17.8959 59.6813 18.0918C59.616 18.1962 59.5703 18.3268 59.5376 18.4966C59.5115 18.6663 59.4919 18.9928 59.4919 19.489C59.4919 19.9721 59.505 20.3051 59.5376 20.4748C59.5507 20.5662 59.5703 20.6446 59.5964 20.7034C59.6225 20.7621 59.6486 20.8209 59.6813 20.8862C59.7857 21.082 59.949 21.2518 60.1775 21.402C60.3995 21.5586 60.6802 21.637 61.0132 21.6435C61.3527 21.637 61.6334 21.5521 61.8554 21.402C62.0774 21.2518 62.2406 21.082 62.3386 20.8862C62.4104 20.7817 62.4626 20.6446 62.4887 20.4748C62.5148 20.3051 62.5279 19.9786 62.5279 19.489C62.5279 18.9993 62.5148 18.6663 62.4887 18.4966C62.4626 18.3333 62.4104 18.1962 62.3386 18.0918ZM61.8358 20.3377C61.8032 20.4879 61.7444 20.6054 61.6661 20.6968C61.6008 20.7817 61.5159 20.8535 61.4115 20.9123C61.3005 20.9776 61.1634 21.0102 61.0132 21.0102C60.863 21.0102 60.7324 20.9776 60.6214 20.9123C60.5105 20.8601 60.4191 20.7882 60.3538 20.6968C60.2689 20.6054 60.2167 20.4879 60.1905 20.3377C60.1579 20.1876 60.1448 19.9068 60.1448 19.489C60.1448 19.0711 60.1579 18.7904 60.1905 18.6337C60.2167 18.49 60.2754 18.3725 60.3538 18.2811C60.4191 18.1962 60.5105 18.1179 60.6214 18.0657C60.7324 18.0069 60.863 17.9808 61.0132 17.9742C61.1634 17.9808 61.3005 18.0069 61.4115 18.0657C61.5159 18.1244 61.6008 18.1962 61.6661 18.2811C61.751 18.3725 61.8097 18.49 61.8358 18.6337C61.8619 18.7838 61.8815 19.0711 61.8815 19.489C61.8815 19.9068 61.8685 20.1876 61.8358 20.3377Z" fill="white"/>
<path d="M66.8501 21.6109H69.5596V21.0037H67.4964V19.7567H69.2593V19.1886H67.4964V17.9743H69.5596V17.3671H66.8501V21.6109Z" fill="white"/>
<path d="M75.3247 19.1886C75.1223 19.1625 74.9656 19.1429 74.8481 19.1233C74.6391 19.0841 74.489 19.0123 74.391 18.9144C74.2931 18.8164 74.2474 18.7054 74.2474 18.5814C74.2539 18.379 74.3192 18.2223 74.4628 18.1244C74.5934 18.0264 74.7632 17.9742 74.959 17.9742C75.3443 17.9807 75.6903 18.0917 76.0102 18.3006L76.3693 17.7718C75.9776 17.491 75.5205 17.3409 74.9917 17.3344C74.5543 17.3409 74.2147 17.4519 73.9732 17.6804C73.7251 17.9089 73.601 18.2092 73.601 18.5749C73.601 18.8817 73.699 19.1429 73.8948 19.3583C74.0842 19.5673 74.3649 19.7044 74.7305 19.7631C74.9329 19.7892 75.1223 19.8154 75.292 19.8415C75.6642 19.9068 75.847 20.0961 75.847 20.4095C75.8405 20.7947 75.5597 20.9906 75.0113 20.9971C74.5477 20.9906 74.1429 20.8535 73.8034 20.5727L73.379 21.0559C73.8295 21.4411 74.3714 21.6369 74.9982 21.6369C75.971 21.6239 76.4673 21.2126 76.4868 20.403C76.4868 20.1026 76.3954 19.8415 76.2061 19.613C76.0168 19.391 75.7229 19.2473 75.3247 19.1886Z" fill="white"/>
<path d="M88.0692 19.1886H86.3913V17.3671H85.7449V21.6109H86.3913V19.7567H88.0692V21.6109H88.7156V17.3671H88.0692V19.1886Z" fill="white"/>
<path d="M93.1879 21.6109H95.8974V21.0037H93.8278V19.7567H95.5906V19.1886H93.8278V17.9743H95.8974V17.3671H93.1879V21.6109Z" fill="white"/>
<path d="M103.021 18.5487C103.007 18.157 102.87 17.8567 102.596 17.6412C102.374 17.4519 102.087 17.3605 101.734 17.3605H100.076V21.6043H100.722V19.7892H101.545L102.42 21.6043H103.184L102.198 19.724C102.74 19.5216 103.014 19.1298 103.021 18.5487ZM100.722 19.2278V17.9416H101.728C101.93 17.9416 102.093 17.9873 102.198 18.0721C102.335 18.1701 102.407 18.3333 102.413 18.5553C102.413 18.7381 102.355 18.8948 102.237 19.0188C102.12 19.1559 101.937 19.2278 101.695 19.2278H100.722Z" fill="white"/>
<path d="M107.29 21.6109H110V21.0037H107.93V19.7567H109.693V19.1886H107.93V17.9743H110V17.3671H107.29V21.6109Z" fill="white"/>
</g>
<defs>
<clipPath id="clip0_1_38">
<rect width="110" height="21.6435" fill="white"/>
</clipPath>
</defs>
</svg>
